<svg width="554" height="128" viewBox="0 0 554 128" fill="none" xmlns="http://www.w3.org/2000/svg">
<path opacity="0.1" d="M26.2283 17.9V55.4039H63.116V17.9H81.5242V108.5H63.116V71.2516H26.2283V108.5H7.82007V17.9H26.2283ZM292.243 17.9V108.5H273.835V17.9H292.243ZM372.546 17.9V32.3912L372.445 32.525L326.904 92.9078H372.546V108.5H304.73V94.0084L304.831 93.8746L350.372 33.4918H306.01V17.9H372.546ZM488.456 17.9L488.604 18.1256L527.878 77.9166V17.9H545.646V108.5H529.26L529.112 108.275L489.838 48.6071V108.5H472.07V17.9H488.456ZM399.573 39.983V86.4166L405.808 92.652H433.042L439.277 86.4166V39.983L433.042 33.7477H405.808L399.573 39.983ZM114.323 39.983V86.4166L120.558 92.652H147.792L154.027 86.4166V39.983L147.792 33.7477H120.558L114.323 39.983ZM205.228 58.86H235.369L239.556 54.6725V37.6793L235.369 33.4918H205.228V58.86ZM172.435 93.4869L157.423 108.5H110.927L110.782 108.353L96.0613 93.6334L95.9148 93.4869V32.9127L96.0613 32.7662L110.782 18.0465L110.927 17.9H157.423L172.435 32.9127V93.4869ZM457.685 93.4869L442.673 108.5H396.177L396.032 108.353L381.311 93.6334L381.165 93.4869V32.9127L381.311 32.7662L396.032 18.0465L396.177 17.9H442.673L457.685 32.9127V93.4869ZM257.708 59.5651L257.564 59.7106L249.192 68.2047L258.09 77.9674L258.22 78.11V108.5H239.812V82.4625L232.408 74.1959H205.228V108.5H186.82V17.9H243.72L243.867 18.0485L257.563 31.8717L257.708 32.0182V59.5651Z" stroke="#00151D"/>
</svg>
